<svg width="220" height="201" viewBox="0 0 220 201" fill="none" xmlns="http://www.w3.org/2000/svg">
<g id="donghua">
<g id="Group">
<g id="Group_2">
<path id="Vector" d="M72.5278 28.2916C73.6359 24.0536 72.4173 21.2913 72.4173 21.2913L68.1711 21.0914C67.7979 19.8193 67.2534 18.6198 66.5603 17.5113L69.424 14.4073C67.0706 10.6636 64.1573 9.53322 64.1573 9.53322L61.004 12.2628C59.8311 11.6122 58.5592 11.107 57.2149 10.7617L56.9445 6.68367C52.5079 5.62599 49.6098 6.78907 49.6098 6.78907L49.408 10.7072C48.0827 11.0234 46.8222 11.4959 45.6569 12.1138L42.6712 9.52959C42.6712 9.52959 39.7579 10.66 37.4044 14.4036C38.1508 15.2142 39.6246 16.1446 39.7122 17.3368C39.7351 17.6312 38.2956 21.1059 38.2346 21.1059L34.415 21.284C34.415 21.284 33.1925 24.05 34.3045 28.2843L38.0899 28.5133C38.4479 29.949 39.0229 31.3047 39.7808 32.5441L37.2864 35.1683C37.2864 35.1683 38.4707 37.9488 42.3932 40.195L45.2342 37.8071C46.5213 38.5413 47.9266 39.1046 49.4194 39.4608L49.6022 43.0519C49.6022 43.0519 52.5003 44.2186 56.9369 43.1573L57.1844 39.41C58.6963 39.0283 60.1167 38.4359 61.4115 37.6653L64.4238 40.1987C68.3463 37.9525 69.5345 35.172 69.5345 35.172L66.7888 32.2824C67.4666 31.123 67.9731 29.8654 68.3044 28.5424L72.5163 28.288L72.5278 28.2916ZM53.418 33.6272C48.3798 33.6272 44.2973 29.7309 44.2973 24.9223C44.2973 20.1137 48.3798 16.2173 53.418 16.2173C58.4563 16.2173 62.5388 20.1137 62.5388 24.9223C62.5388 29.7309 58.4563 33.6272 53.418 33.6272Z" fill="#EAEAEA"/>
<path id="Vector_2" d="M171.207 9.87487C169.04 5.91311 166.142 4.59011 166.142 4.59011L162.752 7.18887C161.564 6.45831 160.292 5.89131 158.975 5.4915L158.959 1.26078C154.496 -0.0767688 151.461 0.944565 151.461 0.944565L150.989 5.07715C149.625 5.33884 148.292 5.775 147.021 6.38562L143.913 3.44156C139.762 5.50967 138.376 8.27563 138.376 8.27563L141.011 11.4051C140.223 12.5063 139.594 13.684 139.141 14.9125L135.021 14.8725C135.021 14.8725 133.596 17.6239 134.461 22.0146C135.611 22.149 137.397 21.9092 138.315 22.7633C138.54 22.9741 139.911 26.5651 139.865 26.6051L137.07 29.2184C137.07 29.2184 138.102 32.1261 141.967 34.6449L145.025 32.366C146.32 33.2347 147.721 33.8962 149.187 34.3542L149.149 37.9779C149.149 37.9779 152.032 39.3336 156.632 38.5122L157.109 34.8448C158.617 34.5722 160.09 34.0925 161.488 33.3946L164.184 36.0225C164.184 36.0225 167.231 35.0375 169.87 31.3483L167.395 28.3207C168.278 27.0485 168.945 25.6746 169.386 24.2462L173.492 24.2317C174.893 19.9719 173.823 17.0751 173.823 17.0751L169.668 16.6426C169.36 15.3159 168.853 14.0256 168.164 12.7971L171.207 9.87123V9.87487ZM160.384 26.3434C156.53 29.6073 150.635 29.2729 147.215 25.5947C143.795 21.9164 144.145 16.29 147.999 13.0261C151.853 9.7622 157.748 10.0966 161.168 13.7748C164.588 17.4531 164.238 23.0795 160.384 26.3434Z" fill="#EAEAEA"/>
<path id="Vector_3" d="M95.3771 12.9534C94.5127 11.3724 93.3549 10.8417 93.3549 10.8417L92.003 11.8812C91.527 11.5904 91.0205 11.3651 90.495 11.2052L90.4874 9.51505C88.7051 8.98076 87.4941 9.38784 87.4941 9.38784L87.3075 11.038C86.7629 11.1434 86.2298 11.3178 85.7233 11.5614L84.4818 10.3874C82.8252 11.2124 82.273 12.3174 82.273 12.3174L83.3241 13.5677C83.008 14.0075 82.7566 14.4763 82.5777 14.967L80.9325 14.9525C80.9325 14.9525 80.3651 16.0501 80.7078 17.8057C81.1648 17.8602 81.8807 17.762 82.2463 18.1037C82.3377 18.1873 82.8823 19.623 82.8671 19.6375L81.7513 20.6807C81.7513 20.6807 82.1626 21.8401 83.7049 22.8469L84.9273 21.9382C85.4453 22.2835 86.0051 22.5489 86.5877 22.7306L86.5725 24.1772C86.5725 24.1772 87.7226 24.7187 89.5619 24.3916L89.7524 22.9269C90.3541 22.8178 90.9443 22.6252 91.5003 22.349L92.5781 23.3994C92.5781 23.3994 93.7929 23.0068 94.8478 21.5348L93.8576 20.3245C94.2118 19.8156 94.4784 19.2668 94.6536 18.6961L96.2949 18.6889C96.8547 16.9879 96.4282 15.8321 96.4282 15.8321L94.7678 15.6612C94.6459 15.1306 94.4441 14.6181 94.1661 14.1274L95.3809 12.9607L95.3771 12.9534ZM91.0548 19.5285C89.5163 20.8333 87.1628 20.6988 85.7956 19.2304C84.4285 17.762 84.5694 15.5158 86.1079 14.211C87.6464 12.9062 89.9999 13.0406 91.3671 14.509C92.7342 15.9774 92.5933 18.2236 91.0548 19.5285Z" fill="#EFEFEF"/>
<path id="Vector_4" fill-rule="evenodd" clip-rule="evenodd" d="M50.0706 44.4439C65.8367 39.4463 92.7571 54.5918 92.7571 54.5918C92.7571 54.5918 104.635 27.1503 120.656 22.0727C138.422 16.4427 166.523 19.1396 172.124 48.711C176.009 69.2176 132.26 138.163 128.436 157.049C113.535 144.098 36.2848 115.228 25.5227 95.1762C11.1657 68.4289 32.3052 50.0776 50.0706 44.4439Z" fill="#F5F4F4"/>
</g>
<g id="Group_3">
<g id="Group_4">
<path id="Vector_5" d="M66.9258 162.69H40.988V166.444H66.9258V162.69Z" fill="#DFDFDF"/>
<path id="Vector_6" d="M65.631 166.444H42.2866V180.259H65.631V166.444Z" fill="#F5F4F4"/>
<path id="Vector_7" d="M58.4754 168.599H49.4385V170.595H58.4754V168.599Z" fill="#DFDFDF"/>
<path id="Vector_8" d="M59.6864 173.23H48.2236V177.461H59.6864V173.23Z" fill="white"/>
</g>
<g id="Group_5">
<path id="Vector_9" d="M58.4411 180.259H32.5032V184.014H58.4411V180.259Z" fill="#DFDFDF"/>
<path id="Vector_10" d="M57.1425 184.01H33.798V197.826H57.1425V184.01Z" fill="#F5F4F4"/>
<path id="Vector_11" d="M49.9906 186.169H40.9537V188.165H49.9906V186.169Z" fill="#DFDFDF"/>
<path id="Vector_12" d="M51.2017 190.8H39.7389V195.031H51.2017V190.8Z" fill="white"/>
</g>
<path id="Vector_13" d="M80.5936 197.789H56.9178L55.3945 180.259H80.5936V197.789Z" fill="#DFDFDF"/>
</g>
<g id="Group_6">
<g id="Group_7">
<path id="Vector_14" d="M137.866 21.7674H78.4572C71.3062 21.7674 65.5092 27.3002 65.5092 34.1252V183.872C65.5092 190.697 71.3062 196.23 78.4572 196.23H137.866C145.017 196.23 150.814 190.697 150.814 183.872V34.1252C150.814 27.3002 145.017 21.7674 137.866 21.7674Z" fill="#233039"/>
<path id="Vector_15" d="M137.656 27.0994H124.788C123.371 27.0994 122.225 28.1935 122.225 29.5455V32.1479C122.225 33.6672 120.934 34.8957 119.346 34.8957H96.9728C95.381 34.8957 94.0938 33.6636 94.0938 32.1479V29.5455C94.0938 28.1935 92.9475 27.0994 91.5309 27.0994H78.6628C73.4989 27.0994 69.3174 31.0939 69.3174 36.0188V181.586C69.3174 186.515 73.5027 190.505 78.6628 190.505H137.656C142.82 190.505 147.002 186.511 147.002 181.586V36.0188C147.002 31.0903 142.816 27.0994 137.656 27.0994Z" fill="white"/>
<g id="Group_8">
<path id="Vector_16" d="M107.731 182.902C109.26 182.902 110.5 181.719 110.5 180.259C110.5 178.8 109.26 177.617 107.731 177.617C106.202 177.617 104.963 178.8 104.963 180.259C104.963 181.719 106.202 182.902 107.731 182.902Z" fill="#DFDFDF"/>
<path id="Vector_17" d="M82.8595 180.554L85.5824 182.309C85.8299 182.469 86.1613 182.298 86.1613 182.015V178.5C86.1613 178.217 85.8299 178.046 85.5824 178.206L82.8595 179.961C82.6424 180.103 82.6424 180.408 82.8595 180.55V180.554Z" fill="#DFDFDF"/>
<path id="Vector_18" d="M132.862 178.002H129.659C129.238 178.002 128.897 178.328 128.897 178.729V181.786C128.897 182.187 129.238 182.513 129.659 182.513H132.862C133.282 182.513 133.623 182.187 133.623 181.786V178.729C133.623 178.328 133.282 178.002 132.862 178.002Z" fill="#DFDFDF"/>
</g>
</g>
<path id="Vector_19" d="M86.0813 131.312C82.9966 131.312 80.4908 128.917 80.4908 125.976C80.4908 123.036 83.0004 120.64 86.0813 120.64H129.385C132.469 120.64 134.975 123.036 134.975 125.976C134.975 128.917 132.466 131.312 129.385 131.312H86.0813Z" fill="white"/>
<path id="Vector_20" d="M129.385 121C132.264 121 134.594 123.228 134.594 125.972C134.594 128.72 132.26 130.945 129.385 130.945H86.0813C83.2023 130.945 80.8716 128.717 80.8716 125.972C80.8716 123.225 83.2061 121 86.0813 121H129.385ZM129.385 120.273H86.0813C82.7872 120.273 80.11 122.832 80.11 125.972C80.11 129.113 82.791 131.672 86.0813 131.672H129.385C132.679 131.672 135.356 129.113 135.356 125.972C135.356 122.832 132.675 120.273 129.385 120.273Z" fill="#040000"/>
<path id="Vector_21" d="M110.9 121H86.0813C83.2041 121 80.8716 123.226 80.8716 125.972V125.976C80.8716 128.722 83.2041 130.948 86.0813 130.948H110.9C113.777 130.948 116.109 128.722 116.109 125.976V125.972C116.109 123.226 113.777 121 110.9 121Z" fill="#EC695F"/>
<g id="CHECKING">
<path id="Vector_22" d="M121.024 138.945V138.653H122.646V140.522H122.341V139.904C122.274 140.011 122.197 140.11 122.109 140.201C122.025 140.288 121.926 140.363 121.814 140.427C121.702 140.487 121.572 140.534 121.424 140.567C121.277 140.601 121.11 140.618 120.924 140.618C120.685 140.618 120.464 140.577 120.26 140.497C120.056 140.417 119.881 140.298 119.733 140.14C119.586 139.98 119.47 139.779 119.386 139.538C119.305 139.296 119.264 139.015 119.264 138.694C119.264 138.429 119.299 138.183 119.37 137.955C119.44 137.724 119.547 137.525 119.691 137.357C119.839 137.186 120.021 137.052 120.239 136.955C120.46 136.858 120.72 136.81 121.019 136.81C121.219 136.81 121.405 136.833 121.577 136.88C121.753 136.927 121.909 136.999 122.046 137.096C122.186 137.19 122.304 137.309 122.399 137.453C122.494 137.593 122.562 137.761 122.604 137.955H122.236C122.204 137.821 122.149 137.701 122.072 137.593C121.998 137.486 121.909 137.397 121.804 137.327C121.698 137.253 121.581 137.198 121.451 137.161C121.321 137.121 121.185 137.101 121.045 137.101C120.796 137.101 120.581 137.143 120.402 137.227C120.223 137.31 120.076 137.429 119.96 137.583C119.844 137.734 119.758 137.917 119.702 138.131C119.649 138.342 119.623 138.575 119.623 138.829C119.623 139.03 119.652 139.221 119.712 139.402C119.775 139.583 119.865 139.742 119.981 139.879C120.1 140.016 120.244 140.125 120.413 140.206C120.585 140.286 120.78 140.326 120.998 140.326C121.099 140.326 121.205 140.316 121.314 140.296C121.422 140.273 121.528 140.236 121.63 140.186C121.732 140.135 121.826 140.07 121.914 139.99C122.002 139.909 122.077 139.811 122.141 139.693C122.2 139.579 122.241 139.461 122.262 139.337C122.286 139.213 122.3 139.082 122.304 138.945H121.024Z" fill="#C9CACA"/>
<path id="Vector_23" d="M115.968 137.367H115.958V140.522H115.599V136.905H116.005L118.197 140.065H118.207V136.905H118.565V140.522H118.149L115.968 137.367Z" fill="#C9CACA"/>
<path id="Vector_24" d="M114.27 140.522V136.905H114.628V140.522H114.27Z" fill="#C9CACA"/>
<path id="Vector_25" d="M110.651 140.522V136.905H111.009V138.779L112.953 136.905H113.359L111.863 138.347L113.622 140.522H113.185L111.605 138.558L111.009 139.126V140.522H110.651Z" fill="#C9CACA"/>
<path id="Vector_26" d="M109.52 137.955C109.446 137.647 109.309 137.428 109.109 137.297C108.909 137.166 108.647 137.101 108.324 137.101C108.096 137.101 107.899 137.145 107.734 137.232C107.569 137.319 107.432 137.436 107.323 137.583C107.218 137.731 107.139 137.901 107.086 138.096C107.037 138.287 107.013 138.489 107.013 138.704C107.013 138.905 107.034 139.102 107.076 139.296C107.121 139.491 107.195 139.665 107.297 139.819C107.399 139.97 107.536 140.092 107.708 140.186C107.88 140.279 108.096 140.326 108.356 140.326C108.517 140.326 108.665 140.301 108.798 140.251C108.932 140.201 109.048 140.132 109.146 140.045C109.248 139.955 109.332 139.849 109.399 139.728C109.469 139.608 109.522 139.476 109.557 139.332H109.931C109.889 139.506 109.827 139.672 109.747 139.829C109.666 139.983 109.559 140.119 109.425 140.236C109.295 140.353 109.136 140.447 108.946 140.517C108.76 140.584 108.54 140.618 108.287 140.618C107.996 140.618 107.747 140.567 107.539 140.467C107.332 140.363 107.162 140.224 107.028 140.05C106.898 139.876 106.804 139.675 106.744 139.447C106.684 139.216 106.654 138.972 106.654 138.714C106.654 138.369 106.698 138.076 106.786 137.834C106.877 137.593 107.002 137.397 107.16 137.247C107.318 137.093 107.504 136.982 107.719 136.915C107.933 136.845 108.166 136.81 108.419 136.81C108.612 136.81 108.791 136.835 108.956 136.885C109.125 136.932 109.273 137.004 109.399 137.101C109.529 137.198 109.634 137.319 109.715 137.463C109.799 137.603 109.857 137.768 109.889 137.955H109.52Z" fill="#C9CACA"/>
<path id="Vector_27" d="M103.608 140.522V136.905H106.131V137.196H103.966V138.503H105.92V138.794H103.966V140.231H106.184V140.522H103.608Z" fill="#C9CACA"/>
<path id="Vector_28" d="M99.8006 140.522V136.905H100.159V138.457H102.403V136.905H102.761V140.522H102.403V138.749H100.159V140.522H99.8006Z" fill="#C9CACA"/>
<path id="Vector_29" d="M98.696 137.955C98.6223 137.647 98.4853 137.428 98.2851 137.297C98.0849 137.166 97.8233 137.101 97.5002 137.101C97.2719 137.101 97.0752 137.145 96.9101 137.232C96.7451 137.319 96.6081 137.436 96.4992 137.583C96.3939 137.731 96.3149 137.901 96.2622 138.096C96.213 138.287 96.1884 138.489 96.1884 138.704C96.1884 138.905 96.2095 139.102 96.2516 139.296C96.2973 139.491 96.3711 139.665 96.4729 139.819C96.5748 139.97 96.7117 140.092 96.8838 140.186C97.0559 140.279 97.2719 140.326 97.5318 140.326C97.6933 140.326 97.8408 140.301 97.9743 140.251C98.1078 140.201 98.2236 140.132 98.322 140.045C98.4238 139.955 98.5081 139.849 98.5748 139.728C98.6451 139.608 98.6978 139.476 98.7329 139.332H99.1069C99.0648 139.506 99.0033 139.672 98.9225 139.829C98.8418 139.983 98.7346 140.119 98.6012 140.236C98.4712 140.353 98.3114 140.447 98.1218 140.517C97.9357 140.584 97.7162 140.618 97.4633 140.618C97.1718 140.618 96.9224 140.567 96.7152 140.467C96.508 140.363 96.3377 140.224 96.2042 140.05C96.0743 139.876 95.9795 139.675 95.9198 139.447C95.8601 139.216 95.8302 138.972 95.8302 138.714C95.8302 138.369 95.8741 138.076 95.9619 137.834C96.0532 137.593 96.1779 137.397 96.3359 137.247C96.494 137.093 96.6801 136.982 96.8943 136.915C97.1086 136.845 97.3421 136.81 97.595 136.81C97.7882 136.81 97.9673 136.835 98.1323 136.885C98.3009 136.932 98.4484 137.004 98.5748 137.101C98.7048 137.198 98.8102 137.319 98.8909 137.463C98.9752 137.603 99.0332 137.768 99.0648 137.955H98.696Z" fill="#C9CACA"/>
</g>
<g id="Group_9">
<path id="Vector_30" d="M91.3633 85.1155C93.1889 85.1155 94.6688 83.703 94.6688 81.9606C94.6688 80.2183 93.1889 78.8058 91.3633 78.8058C89.5377 78.8058 88.0577 80.2183 88.0577 81.9606C88.0577 83.703 89.5377 85.1155 91.3633 85.1155Z" fill="#F9DEDB"/>
<path id="Vector_31" d="M95.6628 74.2407C97.6504 74.2407 99.2616 72.7029 99.2616 70.8059C99.2616 68.909 97.6504 67.3712 95.6628 67.3712C93.6753 67.3712 92.064 68.909 92.064 70.8059C92.064 72.7029 93.6753 74.2407 95.6628 74.2407Z" fill="#F7D4CE"/>
<path id="Vector_32" d="M106.345 68.716C108.494 68.716 110.237 67.0529 110.237 65.0014C110.237 62.9499 108.494 61.2868 106.345 61.2868C104.195 61.2868 102.453 62.9499 102.453 65.0014C102.453 67.0529 104.195 68.716 106.345 68.716Z" fill="#F4C9C1"/>
<path id="Vector_33" d="M118.733 71.2457C121.044 71.2457 122.918 69.4573 122.918 67.2512C122.918 65.0452 121.044 63.2568 118.733 63.2568C116.422 63.2568 114.548 65.0452 114.548 67.2512C114.548 69.4573 116.422 71.2457 118.733 71.2457Z" fill="#F2BEB4"/>
<path id="Vector_34" d="M126.414 80.5868C128.888 80.5868 130.893 78.6731 130.893 76.3124C130.893 73.9518 128.888 72.0381 126.414 72.0381C123.941 72.0381 121.936 73.9518 121.936 76.3124C121.936 78.6731 123.941 80.5868 126.414 80.5868Z" fill="#EFB2A7"/>
<path id="Vector_35" d="M126.102 92.9518C128.737 92.9518 130.874 90.9128 130.874 88.3976C130.874 85.8824 128.737 83.8434 126.102 83.8434C123.467 83.8434 121.33 85.8824 121.33 88.3976C121.33 90.9128 123.467 92.9518 126.102 92.9518Z" fill="#EDA79A"/>
<path id="Vector_36" d="M117.971 101.918C120.769 101.918 123.036 99.7542 123.036 97.0844C123.036 94.4146 120.769 92.2503 117.971 92.2503C115.174 92.2503 112.906 94.4146 112.906 97.0844C112.906 99.7542 115.174 101.918 117.971 101.918Z" fill="#EA9C8D"/>
<path id="Vector_37" d="M105.629 103.765C108.588 103.765 110.987 101.475 110.987 98.6509C110.987 95.8265 108.588 93.5369 105.629 93.5369C102.67 93.5369 100.271 95.8265 100.271 98.6509C100.271 101.475 102.67 103.765 105.629 103.765Z" fill="#E89081"/>
<path id="Vector_38" d="M95.0344 97.6187C98.1556 97.6187 100.686 95.2038 100.686 92.2249C100.686 89.2459 98.1556 86.8311 95.0344 86.8311C91.9132 86.8311 89.383 89.2459 89.383 92.2249C89.383 95.2038 91.9132 97.6187 95.0344 97.6187Z" fill="#E58575"/>
</g>
</g>
<path id="Vector_39" d="M207.057 196.321H0V196.702H207.057V196.321Z" fill="#6D6D6D"/>
<g id="Group_10">
<g id="Group_11">
<path id="Vector_40" d="M10.6592 193.62V196.255H32.2443L29.0225 194.991L32.6632 195.478L30.9647 194.118L23.0398 191.225L19.5248 192.265L10.6592 193.62Z" fill="white"/>
<path id="Vector_41" d="M10.6592 188.11V194.9L29.1482 195.539L23.5425 192.584L32.2443 195.14L24.129 188.67L24.883 185.635L20.0275 184.039L10.6592 188.11Z" fill="#425860"/>
<path id="Vector_42" d="M13.8696 191.454C14.2461 191.454 14.5513 191.163 14.5513 190.804C14.5513 190.444 14.2461 190.153 13.8696 190.153C13.4931 190.153 13.1879 190.444 13.1879 190.804C13.1879 191.163 13.4931 191.454 13.8696 191.454Z" fill="white"/>
<path id="Vector_43" d="M18.2072 191.868C18.5004 191.509 19.5058 190.789 20.0884 190.949" stroke="#222F38" stroke-width="0.75" stroke-miterlimit="10"/>
<path id="Vector_44" d="M20.7587 192.944C21.0519 192.505 21.764 191.549 21.9735 191.625" stroke="#222F38" stroke-width="0.75" stroke-miterlimit="10"/>
<path id="Vector_45" d="M23.0208 193.944C23.2721 193.704 23.3559 192.984 23.8586 192.944" stroke="#222F38" stroke-width="0.75" stroke-miterlimit="10"/>
<path id="Vector_46" d="M22.5181 188.913C22.5181 188.913 23.314 188.354 23.8586 188.474" stroke="#222F38" stroke-width="0.75" stroke-miterlimit="10"/>
<path id="Vector_47" d="M24.3574 190.927C24.7344 190.549 25.1724 189.888 25.5075 189.928" stroke="#222F38" stroke-width="0.75" stroke-miterlimit="10"/>
<path id="Vector_48" d="M26.6157 192.068C26.6157 192.068 27.0689 191.356 27.2327 191.178" stroke="#222F38" stroke-width="0.75" stroke-miterlimit="10"/>
</g>
<g id="Group_12">
<g id="Group_13">
<path id="Vector_49" d="M18.1615 68.8505H16.2117C16.2117 68.8505 15.1301 71.8273 14.2047 72.3834C12.8604 73.1903 6.39785 74.6877 5.29727 76.1561C4.5242 77.1884 2.15167 81.5463 3.25606 88.314C4.36045 95.0817 6.86626 106.16 7.87164 106.76C7.87164 108.195 7.87164 110.772 8.56093 110.772H38.9963V108.017C38.9963 108.017 40.4396 109.515 42.0086 109.515C43.5776 109.515 46.6509 108.617 46.152 104.303C45.6531 99.9884 37.9947 84.5994 37.9947 83.6398C37.9947 82.6803 37.0541 78.3078 30.8429 75.3747C30.4659 73.3393 29.0226 71.1221 26.3873 70.5842C23.752 70.0463 18.1653 68.8469 18.1653 68.8469L18.1615 68.8505Z" fill="#E16A5B"/>
<path id="Vector_50" d="M7.81451 106.705C8.53808 107.861 11.0934 109.751 14.3266 109.3C18.6147 108.704 26.6272 104.328 27.8192 103.132H37.4845L37.1074 105.648C37.1074 105.648 29.7042 106.276 28.1352 106.291C26.5662 106.305 18.3252 109.926 16.9619 110.3C14.8902 110.871 13.7934 110.896 12.133 110.558C10.8078 110.289 8.07347 108.548 7.81451 106.705Z" fill="#040000"/>
<g id="Group_14">
<path id="Vector_51" d="M36.2573 81.4306C36.068 81.2154 35.7317 81.1874 35.5062 81.368C35.2807 81.5487 35.2513 81.8697 35.4406 82.0849L38.7778 85.8794C38.9671 86.0946 39.3034 86.1226 39.5289 85.942C39.7544 85.7613 39.7838 85.4403 39.5945 85.2251L36.2573 81.4306Z" fill="#233039"/>
<path id="Vector_52" d="M35.329 85.3263C35.329 85.3263 41.1022 85.0283 41.7306 85.3263C42.359 85.6244 43.4862 86.8819 43.6119 87.2418C43.7375 87.6016 43.8632 90.2949 43.6119 90.5965C43.3605 90.8982 37.275 96.2266 37.275 96.2266L33.322 90.3058L35.329 85.3263Z" fill="#F0B498"/>
<path id="Vector_53" d="M38.1965 87.0855C39.3885 87.1146 42.7131 86.7547 43.0596 87.9542" stroke="#E8A688" stroke-width="0.5" stroke-miterlimit="10" stroke-linecap="round"/>
<path id="Vector_54" d="M38.4784 88.9428C39.6704 89.0009 42.2447 88.5539 43.4367 90.8292" stroke="#E8A688" stroke-width="0.5" stroke-miterlimit="10" stroke-linecap="round"/>
<path id="Vector_55" d="M38.4784 91.1599C39.0763 91.2181 42.1495 91.3089 42.4961 91.8469" stroke="#E8A688" stroke-width="0.5" stroke-miterlimit="10" stroke-linecap="round"/>
</g>
<g id="Group_15">
<path id="Vector_56" d="M46.0187 88.0668L59.5836 89.8623L40.3102 104.535L27.0042 104.895V103.819L46.0187 88.0668Z" fill="#425860"/>
<path id="Vector_57" d="M27.2213 104.721L46.826 88.7429L58.7725 90.1458" stroke="#35474B" stroke-width="0.75" stroke-miterlimit="10" stroke-linecap="round"/>
</g>
<g id="Group_16">
<path id="Vector_58" d="M39.9446 104.361C39.2743 103.641 38.1623 102.22 39.0154 100.388C39.8684 98.5564 43.669 97.3352 45.3827 98.9308C47.0964 100.526 45.9692 102.805 45.9692 102.805L42.7893 105.477L39.9446 104.361Z" fill="#060504"/>
<path id="Vector_59" d="M46.9593 98.8762C47.6829 99.3487 48.3417 100.512 47.4201 100.872C47.462 101.591 47.4011 102.867 47.4011 102.867C47.4011 102.867 46.6242 103.954 46.251 104.303C45.9425 104.59 44.7505 105.469 44.1603 105.778C43.6538 106.044 43.0901 106.298 42.4466 106.298C41.902 106.218 39.3505 105.019 39.3924 104.543C39.8532 104.063 40.8128 103.623 40.7747 103.463C40.7367 103.303 38.7983 102.097 38.9658 101.141C38.9963 100.959 39.1144 100.563 39.3048 100.443C39.2553 100.272 39.7084 99.7086 40.0321 99.8358C39.8608 98.9817 41.1327 98.6436 41.6544 98.869C42.576 99.2688 44.602 100.068 45.0019 100.305C45.2532 100.385 45.3637 100.279 45.0742 99.9848C44.4649 99.3597 41.7154 98.1384 43.4062 97.7495C44.7924 97.4297 46.9669 98.869 46.9669 98.869L46.9593 98.8762Z" fill="#F0B498"/>
<path id="Vector_60" d="M40.5005 100.221C41.0984 100.312 44.484 101.719 45.0971 102.318" stroke="#E59F78" stroke-width="0.75" stroke-miterlimit="10" stroke-linecap="round"/>
<path id="Vector_61" d="M39.2744 101.271C39.9179 101.497 42.2562 102.707 42.9455 103.369" stroke="#E59F78" stroke-width="0.75" stroke-miterlimit="10" stroke-linecap="round"/>
</g>
<path id="Vector_62" d="M7.14807 76.0362C8.50761 75.8981 11.5618 76.6141 12.3158 78.9911" stroke="#A94031" stroke-width="0.75" stroke-miterlimit="10" stroke-linecap="round"/>
<path id="Vector_63" d="M26.989 78.6204C27.4269 79.9398 30.504 87.0637 30.5649 89.2227" stroke="#A94031" stroke-width="0.75" stroke-miterlimit="10" stroke-linecap="round"/>
<path id="Vector_64" d="M15.6252 101.635C15.8118 99.8867 16.1888 96.4738 21.7107 94.6165C27.2327 92.7592 33.1469 90.3203 33.1469 90.3203" stroke="#A94031" stroke-width="0.75" stroke-miterlimit="10" stroke-linecap="round"/>
<path id="Vector_65" d="M34.2513 81.848L35.3328 85.2645" stroke="#A94031" stroke-width="0.75" stroke-miterlimit="10" stroke-linecap="round"/>
<path id="Vector_66" d="M15.8651 85.1918L24.1632 84.7302L26.6729 88.9428" stroke="#A94031" stroke-width="0.75" stroke-miterlimit="10" stroke-linecap="round"/>
<path id="Vector_67" d="M26.989 76.585L28.3066 74.7277L30.5649 77.5046V75.3856" stroke="#A94031" stroke-width="0.75" stroke-miterlimit="10" stroke-linecap="round"/>
<path id="Vector_68" d="M15.054 72.9322L22.282 78.0825L24.4146 76.018L25.9836 76.9448L24.4793 76.7631L23.036 79.878L15.054 72.9322Z" fill="#040000"/>
<path id="Vector_69" d="M13.4964 82.455L16.5087 90.2985L26.6729 88.9428L16.7601 92.2176L16.2993 98.1093L13.4964 82.455Z" fill="#040000"/>
<path id="Vector_70" d="M20.3474 88.532C20.6818 88.532 20.9529 88.2733 20.9529 87.9541C20.9529 87.635 20.6818 87.3762 20.3474 87.3762C20.013 87.3762 19.7419 87.635 19.7419 87.9541C19.7419 88.2733 20.013 88.532 20.3474 88.532Z" fill="#F3CDC9"/>
</g>
<g id="Group_17">
<path id="Vector_71" d="M15.907 51.0408C14.7341 55.3515 13.6906 59.186 13.6906 59.186L14.7988 63.1005L16.9962 65.6956V69.6101L25.8236 75.72H26.4939L28.0819 73.4047V69.214C28.0819 69.214 32.5985 68.6542 32.5985 64.9033V51.2879L15.907 51.048V51.0408Z" fill="#F0B498"/>
<path id="Vector_72" d="M19.8752 52.1893C20.0427 53.9449 20.4502 60.4145 18.5347 60.4145C17.1523 60.3346 17.6131 58.3391 17.0723 57.9793C16.5315 57.6195 14.4789 57.7394 14.2276 59.455C13.9762 61.1705 15.4614 62.8061 17.1066 62.3263V66.6479C17.1066 66.6479 15.0235 66.0446 15.3929 64.0891C14.2694 64.1691 13.3935 62.9697 13.5992 60.8943C12.8033 60.3745 11.9845 58.8189 13.0013 57.5795C13.4735 57.1397 13.2831 56.6599 13.0013 55.864C12.7195 55.068 15.9831 53.1889 17.6169 52.5891C19.2506 51.9894 19.8752 52.1893 19.8752 52.1893Z" fill="#233039"/>
<path id="Vector_73" d="M32.6365 60.2546C33.3487 60.2146 34.0989 58.659 33.8514 57.6994C34.5216 56.8998 34.773 55.6641 34.5635 55.1443C34.3541 54.6245 33.977 54.4246 34.354 54.1848C34.7311 53.9449 35.527 53.1452 34.9824 52.5092C34.4378 51.8731 32.5985 50.7137 32.6403 51.9894C32.6822 53.2652 32.6403 60.2546 32.6403 60.2546H32.6365Z" fill="#233039"/>
<g id="Group_18">
<path id="Vector_74" d="M28.0819 70.3916C28.0819 70.3916 24.148 70.6715 22.1296 67.3276C24.525 68.4289 25.9988 69.2758 28.0819 69.2358V70.3916Z" fill="#DB9069"/>
<path id="Vector_75" d="M15.8842 58.8589C15.3205 58.8589 14.2847 60.6472 15.9375 61.5195" stroke="#E19F82" stroke-width="0.75" stroke-miterlimit="10" stroke-linecap="round"/>
<path id="Vector_76" d="M24.0643 58.7935C24.4534 58.7935 24.7688 58.4924 24.7688 58.1211C24.7688 57.7497 24.4534 57.4487 24.0643 57.4487C23.6752 57.4487 23.3597 57.7497 23.3597 58.1211C23.3597 58.4924 23.6752 58.7935 24.0643 58.7935Z" fill="#312C2C"/>
<path id="Vector_77" d="M30.2602 58.7935C30.6493 58.7935 30.9648 58.4924 30.9648 58.1211C30.9648 57.7497 30.6493 57.4487 30.2602 57.4487C29.8712 57.4487 29.5557 57.7497 29.5557 58.1211C29.5557 58.4924 29.8712 58.7935 30.2602 58.7935Z" fill="#312C2C"/>
<path id="Vector_78" d="M21.7717 53.9885C22.2096 53.4506 23.5082 52.6401 24.6317 53.9122C23.1998 53.854 21.7717 53.9885 21.7717 53.9885Z" fill="#312C2C"/>
<path id="Vector_79" d="M28.5161 53.915C28.954 53.4759 30.2526 52.819 31.376 53.8533C29.9441 53.8061 28.5161 53.915 28.5161 53.915Z" fill="#312C2C"/>
<path id="Vector_80" d="M22.0078 55.9941C22.2592 55.7982 23.295 55.0215 24.2813 56.0704" stroke="#312C2C" stroke-width="0.8" stroke-miterlimit="10" stroke-linecap="round"/>
<path id="Vector_81" d="M28.6912 55.9941C28.9426 55.7982 29.9784 55.0215 30.9647 56.0704" stroke="#312C2C" stroke-width="0.8" stroke-miterlimit="10" stroke-linecap="round"/>
<path id="Vector_82" d="M26.8747 56.0675L28.516 60.9525L26.8747 61.0724" stroke="#312C2C" stroke-width="0.8" stroke-miterlimit="10" stroke-linecap="round"/>
<path id="Vector_83" d="M24.6317 61.7339C24.6317 61.7339 24.8982 63.2896 26.4368 63.3804" stroke="#312C2C" stroke-width="0.8" stroke-miterlimit="10" stroke-linecap="round"/>
</g>
<g id="Group_19">
<path id="Vector_84" d="M27.1755 52.3602C29.4338 52.3602 38.4098 53.6977 38.5545 52.68C38.6993 51.6623 34.7463 50.8445 34.1218 50.3429C33.7105 50.0158 31.5436 47.3371 30.9419 46.2104C30.2945 44.9928 26.0712 42.6375 23.2454 42.8556C20.1303 43.0955 16.4896 44.1532 14.3761 47.875C13.7896 48.562 13.8315 49.9795 13.7477 50.8591C13.6639 51.7386 13.8125 52.6655 13.4964 53.0871C12.9632 53.7995 13.2869 54.3738 14.1247 54.5337C14.9625 54.6936 17.8263 53.0762 19.8333 52.7563C21.8402 52.4365 27.1755 52.3565 27.1755 52.3565V52.3602Z" fill="#E16A5B"/>
<path id="Vector_85" d="M27.8344 48.6964H32.0996C32.2748 48.6964 32.4347 48.631 32.5528 48.522C32.271 48.1658 31.993 47.7914 31.7378 47.4388H27.8306C27.465 47.4388 27.1718 47.7187 27.1718 48.0676C27.1718 48.4166 27.465 48.6964 27.8306 48.6964H27.8344Z" fill="white"/>
<path id="Vector_86" d="M18.4357 44.0986C17.9939 44.3131 17.5636 44.5675 17.1485 44.8546C18.7594 44.9128 22.3315 45.1018 23.2074 45.309C25.4276 45.8287 27.5069 46.9954 27.8496 47.2062C27.0537 46.1377 24.9211 44.8946 23.5844 44.5566C22.301 44.2295 19.4944 44.1277 18.4319 44.1023L18.4357 44.0986Z" fill="#060504"/>
<path id="Vector_87" d="M13.9343 48.9509C13.8543 49.2526 13.8239 49.8414 13.8239 49.8414C14.7036 49.8414 20.0732 49.9213 22.2058 47.806C21.3756 48.1949 18.5346 48.7801 17.7806 48.9C17.0266 49.0199 14.357 48.9691 13.9305 48.9509H13.9343Z" fill="#060504"/>
<path id="Vector_88" d="M14.7607 47.2389C18.3823 46.4357 21.288 46.3812 22.0192 47.159C22.1525 47.3007 22.2477 47.5043 22.1867 47.8023" stroke="#060504" stroke-width="0.25" stroke-miterlimit="10" stroke-linecap="round"/>
<path id="Vector_89" d="M13.9229 52.5964C17.0799 51.1934 21.528 49.7105 26.9737 49.3834C28.6684 49.2816 30.2526 49.3034 31.6997 49.4016" stroke="#060504" stroke-width="0.25" stroke-miterlimit="10" stroke-linecap="round"/>
<path id="Vector_90" d="M32.7508 50.3793C29.6433 51.357 27.0766 51.3425 25.1382 51.0371C24.982 51.0117 24.8297 50.9863 24.6774 50.9572" stroke="#060504" stroke-width="0.25" stroke-miterlimit="10" stroke-linecap="round"/>
</g>
</g>
</g>
<path id="Vector_91" d="M7.47937 115.483H38.6041C38.6041 115.483 39.1905 131.374 39.3581 135.368C39.5256 139.362 39.5256 151.099 37.6863 157.808C35.8469 164.518 25.9721 184.479 25.3857 186.235C24.129 186.235 21.6193 185.675 21.6193 185.675L21.1166 190.146H8.73609C8.73609 190.146 8.31718 178.01 8.14962 176.73C7.98206 175.451 10.4079 154.61 10.4917 147.984C10.6516 135.288 7.47937 115.483 7.47937 115.483Z" fill="#233039"/>
<g id="Group_20">
<path id="Vector_92" d="M6.58063 110.776H39.8379V114.622C39.8379 115.374 39.1981 115.988 38.406 115.988H6.58063V110.776Z" fill="#425860"/>
<path id="Vector_93" d="M40.0055 110.776C41.3232 112.811 42.2866 114.603 42.6408 117.486C42.995 120.368 43.7718 128.866 42.8921 129.465C42.0124 130.065 39.4571 131.544 39.2705 127.295C39.1296 124.061 38.8326 117.893 38.5546 114.418C38.3756 112.179 40.0055 110.776 40.0055 110.776Z" fill="#425860"/>
<path id="Vector_94" d="M39.6513 110.776V114.622C39.6513 115.374 39.0115 115.988 38.2194 115.988H38.6002C39.3885 115.988 40.0321 115.378 40.0321 114.622V110.776H39.6513Z" fill="#31464D"/>
<path id="Vector_95" d="M32.2443 110.776H31.9473V115.988H32.2443V110.776Z" fill="#31464D"/>
<path id="Vector_96" d="M19.5629 112.517H10.5831C8.86895 112.517 7.47937 113.843 7.47937 115.479V127.942C7.47937 129.578 8.86895 130.905 10.5831 130.905H19.5629C21.277 130.905 22.6666 129.578 22.6666 127.942V115.479C22.6666 113.843 21.277 112.517 19.5629 112.517Z" fill="#425860"/>
<path id="Vector_97" d="M19.5629 112.157H10.5869C8.87316 112.157 7.48315 113.484 7.48315 115.119V115.483C7.48315 113.847 8.87316 112.521 10.5869 112.521H19.5629C21.2766 112.521 22.6666 113.847 22.6666 115.483V115.119C22.6666 113.484 21.2766 112.157 19.5629 112.157Z" fill="#31464D"/>
<path id="Vector_98" d="M22.6666 120.364H7.47937V120.663H22.6666V120.364Z" fill="#31464D"/>
<path id="Vector_99" d="M10.3394 130.81V120.422H10.0271V130.81H10.3394Z" fill="#31464D"/>
<path id="Vector_100" d="M19.0259 130.814V120.426H18.7137V130.814H19.0259Z" fill="#31464D"/>
</g>
<path id="Vector_101" opacity="0.46" d="M29.9442 120.364C30.1955 123.646 30.2793 145.371 28.1048 154.592C25.9303 163.813 21.6613 185.693 21.6613 185.693" stroke="#425860" stroke-miterlimit="10"/>
</g>
<g id="Group_21">
<g id="Group_22">
<path id="Vector_102" d="M169.999 142.783C170.921 139.668 171.256 132.082 177.78 129.687C184.307 127.292 189.661 124.337 195.686 126.252C197.86 126.652 199.033 126.972 199.033 126.972L204.304 134.212L206.814 157.398L171.34 153.483C171.34 153.483 166.237 152.443 165.315 152.127C164.394 151.811 164.059 151.408 163.56 150.692C163.061 149.976 157.2 136.237 157.2 136.237L165.734 133.522L169.999 142.786V142.783Z" fill="#DFDFDF"/>
<path id="Vector_103" d="M176.614 130.141C176.911 130.061 177.605 130.087 177.726 130.647C177.848 131.206 180.32 140.148 180.32 140.148C180.32 140.148 189.985 138.49 190.442 138.37C190.442 137.411 189.437 133.398 189.604 131.682C189.772 129.967 190.766 125.9 193.904 125.9C195.366 125.9 196.478 126.041 197.636 126.645C196.509 126.645 193.953 126.772 193.451 126.812C193.032 127.292 191.234 128.15 191.192 130.665C191.15 133.18 190.945 138.428 190.945 138.428L190.701 145.803L178.819 145.062L178.724 140.387L175.704 130.737C175.704 130.737 176.062 130.29 176.603 130.141H176.614Z" fill="#E16A5B"/>
<g id="Group_23">
<path id="Vector_104" d="M155.719 124.646H151.663C151.301 124.646 151.008 124.926 151.008 125.271V127.463C151.008 127.808 151.301 128.088 151.663 128.088H155.719C156.08 128.088 156.374 127.808 156.374 127.463V125.271C156.374 124.926 156.08 124.646 155.719 124.646Z" fill="#46565F"/>
<path id="Vector_105" d="M154.02 127.521C154.02 127.521 154.805 127.819 154.774 130.425C154.744 133.031 154.774 134.557 154.774 134.557L155.243 133.151L155.022 140.667L155.681 138.752C155.681 138.752 155.46 143.302 155.46 144.022C155.46 144.742 155.574 146.886 157.352 146.508C158.67 146.177 159.043 145.112 158.106 144.091C157.051 142.943 154.801 144.109 155.46 147.511C156.118 150.91 158.921 150.612 159.694 150.103C160.372 149.659 161.484 148.246 161.359 144.742" stroke="#46565F" stroke-width="0.75" stroke-linecap="square" stroke-linejoin="round"/>
<path id="Vector_106" d="M157.695 142.75L161.016 138.363L166.351 142.136L166.226 143.691L168.796 145.698L166.069 148.155L157.695 142.75Z" fill="#242F39"/>
</g>
<path id="Vector_107" d="M159.039 135.644L164.531 133.903C164.531 133.903 162.048 128.302 161.389 127.434C160.73 126.565 158.221 123.992 157.436 123.752C156.652 123.512 154.298 123.065 152.386 124.322C154.016 124.5 154.866 124.711 155.711 125.642C155.65 125.82 155.524 126.151 154.614 125.94C153.704 125.729 152.889 124.831 151.008 125.34V126.358C151.008 126.358 153.708 127.197 154.805 128.186C154.774 128.873 153.894 130.283 157.314 130.283C157.627 131.57 159.039 135.648 159.039 135.648V135.644Z" fill="#F0B399"/>
<path id="Vector_108" d="M166.035 143.542C166.507 143.513 169.017 143.273 170.053 144.382C171.089 145.49 173.107 145.309 173.107 145.309L172.844 150.822C172.844 150.822 171.778 151.902 170.712 152.051C169.645 152.2 166.663 153.098 164.219 150.136C161.77 147.17 161.081 146.123 162.398 145.883C163.308 145.974 164.531 146.992 165.129 147.082C165.727 147.173 166.896 147.155 167.17 146.508C167.296 146.21 167.768 144.807 166.039 143.546L166.035 143.542Z" fill="#F0B399"/>
<path id="Vector_109" d="M201.836 149.561C203.184 151.208 206.699 156.18 206.699 156.18L207.115 158.437L195.572 156.391L200.427 153.454L201.84 149.561H201.836Z" fill="#E16A5B"/>
<path id="Vector_110" d="M173.126 152.498C183.45 153.934 195.088 155.522 196.063 155.282C197.038 155.042 199.89 153.814 200.393 149.292C200.896 144.771 202.213 134.739 202.213 134.739V151.179C202.213 152.614 201.052 157.198 194.62 156.66C188.188 156.122 186.9 155.973 173.126 152.498Z" fill="#040000"/>
<path id="Vector_111" d="M172.844 152.291L173.126 144.771L190.762 145.938L191.169 134.95" stroke="#666565" stroke-width="0.75" stroke-miterlimit="10" stroke-linecap="round"/>
<path id="Vector_112" d="M192.925 148.544L191.169 146.479" stroke="#8E8887" stroke-width="0.75" stroke-miterlimit="10" stroke-linecap="round"/>
<g id="Group_24">
<path id="Vector_113" d="M188.945 109.039C190.118 113.349 189.543 114.938 191.017 115.207C192.491 115.476 193.268 117.417 192.521 118.754C191.775 120.092 189.738 119.939 189.738 119.939V127.953L180.297 134.227L178.587 129.389L178.652 126.827C178.652 126.827 174.135 126.267 174.135 122.516V108.901L188.949 109.039H188.945Z" fill="#F0B498"/>
<g id="Group_25">
<path id="Vector_114" d="M178.648 128.008C178.648 128.008 182.582 128.288 184.6 124.944C182.205 126.045 180.731 126.892 178.648 126.852V128.008Z" fill="#DB9069"/>
<path id="Vector_115" d="M190.846 116.475C191.409 116.475 192.445 118.263 190.792 119.136" stroke="#E19F82" stroke-width="0.75" stroke-miterlimit="10" stroke-linecap="round"/>
<path id="Vector_116" d="M182.666 116.41C183.055 116.41 183.37 116.109 183.37 115.737C183.37 115.366 183.055 115.065 182.666 115.065C182.277 115.065 181.961 115.366 181.961 115.737C181.961 116.109 182.277 116.41 182.666 116.41Z" fill="#312C2C"/>
<path id="Vector_117" d="M176.47 116.41C176.859 116.41 177.174 116.109 177.174 115.737C177.174 115.366 176.859 115.065 176.47 115.065C176.081 115.065 175.765 115.366 175.765 115.737C175.765 116.109 176.081 116.41 176.47 116.41Z" fill="#312C2C"/>
<path id="Vector_118" d="M184.958 111.605C184.52 111.067 183.222 110.256 182.098 111.528C183.53 111.47 184.958 111.605 184.958 111.605Z" fill="#312C2C"/>
<path id="Vector_119" d="M178.214 111.535C177.776 111.096 176.477 110.439 175.354 111.473C176.786 111.426 178.214 111.535 178.214 111.535Z" fill="#312C2C"/>
<path id="Vector_120" d="M184.722 113.61C184.471 113.414 183.435 112.638 182.449 113.687" stroke="#312C2C" stroke-width="0.8" stroke-miterlimit="10" stroke-linecap="round"/>
<path id="Vector_121" d="M178.039 113.61C177.787 113.414 176.751 112.638 175.765 113.687" stroke="#312C2C" stroke-width="0.8" stroke-miterlimit="10" stroke-linecap="round"/>
<path id="Vector_122" d="M179.855 113.684L178.214 118.572L179.855 118.692" stroke="#312C2C" stroke-width="0.8" stroke-miterlimit="10" stroke-linecap="round"/>
<path id="Vector_123" d="M182.098 119.35C182.098 119.35 181.832 120.906 180.293 120.997" stroke="#312C2C" stroke-width="0.8" stroke-miterlimit="10" stroke-linecap="round"/>
</g>
<path id="Vector_124" d="M187.297 109.922C187.232 112.045 187.133 117.9 189.159 117.667C189.741 117.493 189.993 116.057 190.179 115.279C190.869 115.337 191.748 115.316 191.684 112.005C191.619 108.693 187.293 109.922 187.293 109.922H187.297Z" fill="#233039"/>
<g id="Group_26">
<path id="Vector_125" d="M180.346 110.965C178.088 110.965 169.112 112.303 168.967 111.285C168.823 110.267 172.776 109.449 173.4 108.948C173.812 108.621 175.978 105.942 176.58 104.815C177.228 103.598 181.451 101.242 184.277 101.46C187.392 101.7 191.032 102.758 193.146 106.48C193.732 107.167 193.691 108.584 193.774 109.464C193.858 110.343 193.71 111.27 194.026 111.692C194.559 112.404 194.235 112.979 193.397 113.139C192.559 113.298 189.696 111.681 187.689 111.361C185.682 111.041 180.346 110.961 180.346 110.961V110.965Z" fill="#E16A5B"/>
<path id="Vector_126" d="M179.688 107.301H175.422C175.247 107.301 175.087 107.236 174.969 107.127C175.251 106.771 175.529 106.396 175.784 106.044H179.691C180.057 106.044 180.35 106.324 180.35 106.672C180.35 107.021 180.057 107.301 179.691 107.301H179.688Z" fill="white"/>
<path id="Vector_127" d="M189.086 102.703C189.528 102.918 189.959 103.172 190.374 103.46C188.763 103.518 185.191 103.707 184.315 103.914C182.095 104.434 180.015 105.6 179.672 105.811C180.468 104.743 182.601 103.499 183.938 103.161C185.221 102.834 188.028 102.733 189.09 102.707L189.086 102.703Z" fill="#060504"/>
<path id="Vector_128" d="M193.588 107.556C193.668 107.857 193.698 108.446 193.698 108.446C192.819 108.446 187.449 108.526 185.316 106.411C186.146 106.8 188.987 107.385 189.741 107.505C190.495 107.625 193.165 107.574 193.592 107.556H193.588Z" fill="#060504"/>
<path id="Vector_129" d="M192.761 105.844C189.14 105.041 186.234 104.986 185.503 105.764C185.369 105.906 185.274 106.109 185.335 106.407" stroke="#060504" stroke-width="0.25" stroke-miterlimit="10" stroke-linecap="round"/>
<path id="Vector_130" d="M193.599 111.201C190.442 109.798 185.994 108.315 180.548 107.988C178.854 107.886 177.269 107.908 175.822 108.006" stroke="#060504" stroke-width="0.25" stroke-miterlimit="10" stroke-linecap="round"/>
<path id="Vector_131" d="M174.771 108.984C177.879 109.962 180.446 109.947 182.384 109.642C182.54 109.617 182.692 109.591 182.845 109.562" stroke="#060504" stroke-width="0.25" stroke-miterlimit="10" stroke-linecap="round"/>
</g>
</g>
</g>
<path id="Vector_132" d="M177.311 153.519C177.311 153.519 207.849 158.31 208.604 158.47C209.274 159.349 211.155 164.979 211.094 166.735C211.033 168.49 209.506 171.627 207.728 171.605C205.949 171.584 204.277 169.97 202.206 160.705C199.091 159.727 177.315 153.519 177.315 153.519H177.311Z" fill="#425860"/>
<path id="Vector_133" d="M205.1 159.938C205.1 159.938 177.551 153.349 169.897 151.615C162.242 149.877 159.984 156.707 160.422 159.582C160.86 162.457 165.053 174.807 167.376 180.736C159.595 190.436 168.202 193.239 169.645 193.119C171.089 192.999 193.241 188.746 193.241 188.746L191.931 179.714C191.931 179.714 192.3 179.151 195.122 178.911C203.531 178.791 205.351 175.149 206.669 172.994C207.987 170.838 205.1 159.938 205.1 159.938ZM177.65 169.465L176.961 166.651L179.093 168.058L177.65 169.465Z" fill="#E16A5C"/>
<path id="Vector_134" d="M197.396 177.959C195.64 178.856 193.748 179.285 191.268 178.507C188.667 177.69 180.251 170.199 178.37 168.701L179.094 167.996C179.094 167.996 192.628 178.137 197.396 177.959Z" fill="#060504"/>
<g id="Group_27">
<path id="Vector_135" d="M162.349 200.09C162.349 200.09 183.119 195.06 183.435 194.878C183.751 194.696 183.812 194.038 183.435 193.021C182.243 193.38 162.604 198.771 162.604 198.771L162.349 200.09Z" fill="#E0E0E0"/>
<path id="Vector_136" d="M171.012 187.87L180.99 185.115L183.439 193.021L162.604 198.771L171.702 191.043L171.012 187.87Z" fill="#425860"/>
<path id="Vector_137" d="M178.103 190.015C178.606 190.015 179.014 189.626 179.014 189.146C179.014 188.666 178.606 188.277 178.103 188.277C177.601 188.277 177.193 188.666 177.193 189.146C177.193 189.626 177.601 190.015 178.103 190.015Z" fill="#E0E0E0"/>
<path id="Vector_138" d="M171.808 190.843C172.437 190.963 173.191 191.043 173.438 191.522" stroke="#2B3C42" stroke-width="0.75" stroke-miterlimit="10" stroke-linecap="round"/>
<path id="Vector_139" d="M169.881 192.763C170.217 192.882 171.264 193.042 171.386 193.922" stroke="#2B3C42" stroke-width="0.75" stroke-miterlimit="10" stroke-linecap="round"/>
<path id="Vector_140" d="M168.225 194.176C168.225 194.176 169.063 195.056 169.105 195.376" stroke="#2B3C42" stroke-width="0.75" stroke-miterlimit="10" stroke-linecap="round"/>
</g>
<g id="Group_28">
<path id="Vector_141" d="M204.502 196.186C204.502 196.186 198.961 177.904 198.778 177.632C198.595 177.359 197.948 177.323 196.969 177.69C197.358 178.736 203.211 196.001 203.211 196.001L204.502 196.186Z" fill="#E0E0E0"/>
<path id="Vector_142" d="M192.331 188.873L189.338 180.099L196.966 177.686L203.207 196.001L195.4 188.161L192.331 188.873Z" fill="#425860"/>
<path id="Vector_143" d="M193.355 183.345C193.822 183.345 194.201 182.984 194.201 182.538C194.201 182.093 193.822 181.731 193.355 181.731C192.888 181.731 192.51 182.093 192.51 182.538C192.51 182.984 192.888 183.345 193.355 183.345Z" fill="#E0E0E0"/>
<path id="Vector_144" d="M195.202 188.074C195.301 187.514 195.355 186.842 195.816 186.605" stroke="#2B3C42" stroke-width="0.75" stroke-miterlimit="10" stroke-linecap="round"/>
<path id="Vector_145" d="M197.129 189.728C197.236 189.426 197.358 188.495 198.211 188.354" stroke="#2B3C42" stroke-width="0.75" stroke-miterlimit="10" stroke-linecap="round"/>
<path id="Vector_146" d="M198.561 191.152C198.561 191.152 199.391 190.382 199.7 190.335" stroke="#2B3C42" stroke-width="0.75" stroke-miterlimit="10" stroke-linecap="round"/>
</g>
<path id="Vector_147" d="M177.193 168.687L183.439 185.115L182.494 185.501L184.063 190.338L182.734 190.745L180.925 184.497L182.117 184.185L177.193 168.687Z" fill="#060504"/>
<path id="Vector_148" d="M174.84 160.109C174.84 160.109 176.911 163.584 176.032 164.961C175.655 165.561 171.953 161.127 171.138 161.308" stroke="#A4432D" stroke-width="0.75" stroke-miterlimit="10" stroke-linecap="round"/>
<path id="Vector_149" d="M191.154 178.795C190.964 179.587 182.62 181.681 182.62 181.681" stroke="#A4432D" stroke-width="0.75" stroke-miterlimit="10" stroke-linecap="round"/>
<path id="Vector_150" d="M171.012 187.87C169.954 187.918 169.192 186.3 168.663 184.745C168.133 183.189 160.11 162.115 160.372 157.877C160.536 155.239 162.81 151.978 165.319 151.8" stroke="#A4432D" stroke-width="0.75" stroke-miterlimit="10" stroke-linecap="round"/>
</g>
<g id="Group_29">
<path id="Vector_151" d="M208.337 100.254L212.77 96.2993L214.027 97.6186L208.337 102.689L204.487 99.0143L205.869 97.6586L208.337 100.254Z" fill="#040000"/>
<path id="Vector_152" d="M209.255 89.7533C203.977 89.7533 199.7 93.835 199.7 98.8726C199.7 102.504 201.924 105.637 205.138 107.105L205.264 109.239L207.549 107.847C208.105 107.941 208.672 107.996 209.255 107.996C214.533 107.996 218.81 103.914 218.81 98.8762C218.81 93.8386 214.533 89.7569 209.255 89.7569V89.7533Z" stroke="#ABAAAA" stroke-miterlimit="10"/>
</g>
</g>
</g>
</svg>
